<svg height="512pt" viewBox="0 0 512 512" width="512pt" xmlns="http://www.w3.org/2000/svg"><path d="m408.339844 5.175781c-2.101563-2.101562-4.800782-3.902343-7.5-4.5-2.703125-.902343-6-.902343-8.703125 0-4.496094 1.5-113.035157 42.097657-155.636719 191.5-3 9.898438-5.699219 19.796875-8.398438 30.296875l2.097657 169.5c1.199219.601563 24.898437 10.800782 51.300781 22.5 33 14.402344 70.800781 30.902344 75 32.402344 35.402344-63.601562 66-141.902344 81.601562-196.800781 42.898438-149.402344-26.761718-241-29.761718-244.898438zm0 0" fill="#4bb9ec"/><path d="m438.101562 250.074219c-15.601562 54.898437-46.199218 133.199219-81.601562 196.800781-4.199219-1.5-42-18-75-32.402344 40.800781-140.699218 74.636719-258.394531 119.339844-413.796875 2.699218.597657 5.398437 2.398438 7.5 4.5 3 3.898438 72.660156 95.496094 29.761718 244.898438zm0 0" fill="#0095ff"/><path d="m356.5 446.875c-9.898438 18.300781-20.402344 35.398438-31.199219 50.097656h-67.5l29.699219-102.898437c30 8.699219 54 28.199219 69 52.800781zm0 0" fill="#006eff"/><path d="m287.5 394.074219-29.699219 102.898437h-26.402343l-1.199219-105c10.199219-2.097656 20.703125-2.996094 31.5-1.796875 8.398437 0 17.101562 1.5 25.800781 3.898438zm0 0" fill="#0095ff"/><path d="m371.847656 101.449219c-.007812.007812-42.265625 37.757812-46.839844 53.683593-4.574218 15.921876 12.261719 65.941407 12.265626 65.949219 0 0 40.824218-33.457031 45.402343-49.382812 4.574219-15.925781-10.828125-70.25-10.828125-70.25zm0 0" fill="#0095ff"/><path d="m371.847656 101.449219-34.574218 119.632812s40.828124-33.457031 45.402343-49.382812-10.828125-70.25-10.828125-70.25zm0 0" fill="#006eff"/><path d="m271 256.972656c0 44.101563-3.601562 90-9.300781 133.203125-5.398438 38.699219-12.898438 75.597657-21.898438 106.796875h-147.601562c-19.800781-69.597656-31.199219-162.296875-31.199219-240 0-10.796875.601562-21.300781 1.5-31.199218l51.601562-54 51.898438-34.800782 58.5 31.5 45 57.300782c.898438 9.898437 1.5 20.402343 1.5 31.199218zm0 0" fill="#ff641a"/><path d="m174.40625 34.550781c-2.546875-1.710937-5.476562-2.570312-8.40625-2.570312s-5.859375.859375-8.40625 2.570312c-3.664062 2.480469-83.953125 58.503907-95.195312 191.222657 55.730468 8.144531 103.601562-34.636719 103.601562-88.800782 0 54.164063 47.871094 96.945313 103.601562 88.800782-11.242187-132.71875-91.53125-188.742188-95.195312-191.222657zm0 0" fill="#f03800"/><path d="m271 256.972656c0 44.101563-3.601562 90-9.300781 133.203125-5.398438 38.699219-12.898438 75.597657-21.898438 106.796875h-73.800781v-360l58.5 31.5 45 57.300782c.898438 9.898437 1.5 20.402343 1.5 31.199218zm0 0" fill="#f03800"/><path d="m269.601562 225.773438c-11.242187-132.71875-91.53125-188.742188-95.195312-191.222657-2.546875-1.710937-5.476562-2.570312-8.40625-2.570312v104.992187c0 54.164063 47.871094 96.945313 103.601562 88.800782zm0 0" fill="#cd0000"/><path d="m512 496.972656c0 8.402344-6.597656 15-15 15h-482c-8.402344 0-15-6.597656-15-15 0-8.398437 6.597656-15 15-15h482c8.402344 0 15 6.601563 15 15zm0 0" fill="#ffd396"/><path d="m211 286.972656c0 8.402344-6.597656 15-15 15h-60c-8.402344 0-15-6.597656-15-15 0-8.398437 6.597656-15 15-15h60c8.402344 0 15 6.601563 15 15zm0 0" fill="#f03800"/><path d="m211 346.972656c0 8.402344-6.597656 15-15 15h-60c-8.402344 0-15-6.597656-15-15 0-8.398437 6.597656-15 15-15h60c8.402344 0 15 6.601563 15 15zm0 0" fill="#f03800"/><path d="m211 346.972656c0 8.402344-6.597656 15-15 15h-30v-30h30c8.402344 0 15 6.601563 15 15zm0 0" fill="#cd0000"/><path d="m196 301.972656h-30v-30h30c8.402344 0 15 6.601563 15 15 0 8.402344-6.597656 15-15 15zm0 0" fill="#cd0000"/><path d="m512 496.972656c0 8.402344-6.597656 15-15 15h-331v-30h331c8.402344 0 15 6.601563 15 15zm0 0" fill="#ffb64c"/></svg>