<?xml version="1.0" encoding="UTF-8"?>
<svg width="495px" height="20px" viewBox="0 0 495 20" version="1.1" xmlns="http://www.w3.org/2000/svg" xmlns:xlink="http://www.w3.org/1999/xlink">
    <!-- Generator: Sketch 52.2 (67145) - http://www.bohemiancoding.com/sketch -->
    <title>Group 13</title>
    <desc>Created with Sketch.</desc>
    <defs>
        <rect id="path-1" x="0" y="0" width="495" height="26"></rect>
    </defs>
    <g id="Page-1" stroke="none" stroke-width="1" fill="none" fill-rule="evenodd">
        <g id="Accueil" transform="translate(-485.000000, -3779.000000)">
            <g id="Group-12" transform="translate(-9.000000, 3773.000000)">
                <g id="Group-13" transform="translate(494.000000, 0.000000)">
                    <mask id="mask-2" fill="white">
                        <use xlink:href="#path-1"></use>
                    </mask>
                    <g id="Mask" fill-rule="nonzero"></g>
                    <g mask="url(#mask-2)">
                        <g transform="translate(-10.000000, 6.000000)">
                            <g id="wave-copy" stroke-width="1" fill="none" transform="translate(257.000000, 9.500000) scale(-1, 1) translate(-257.000000, -9.500000) translate(9.000000, 0.000000)">
                                <g id="sxKmTh_1_" transform="translate(247.000000, 0.000000)" fill="#02A6E8">
                                    <path d="M1,10.9 C6.8,9.1 13.1,8.2 18.2,5.2 C27.7,-0.5 36.3,-1 45.6,5.4 C57,13.1 68.8,13 80.2,5.4 C89.4,-0.8 98.2,-0.9 107.6,5.4 C119,13.1 130.8,13 142.3,5.4 C151.6,-0.8 160.3,-0.9 169.7,5.4 C181.1,13.1 192.9,13 204.3,5.4 C213.5,-0.8 222.2,-0.7 231.7,5.3 C236.7,8.4 242.3,9.25128732 248.1,11.0512873 C248.1,13.7512873 248.1,16.3 248.1,19 C241.9,16.8 236,15.4 230.4,12.2 C221.6,7.2 213.6,6.9 205.2,12.5 C193.2,20.6 180.9,20.8 168.8,12.6 C160,6.7 151.6,6.8 142.8,12.6 C131.1,20.4 119.1,20.8 107.3,12.8 C98,6.6 89.3,6.8 80,13 C68.8,20.4 57.1,20.7 45.9,13.1 C36.3,6.7 27.4,6.9 17.6,13.1 C12.7,16.2 6.5,17 0.8,18.9 C1,16.3 1,13.6 1,10.9 Z" id="Path"></path>
                                </g>
                                <g id="sxKmTh_2_" fill="#02A6E8">
                                    <path d="M0,10.9 C5.8,9.1 12.1,8.2 17.2,5.2 C26.7,-0.5 35.3,-1 44.6,5.4 C56,13.1 67.8,13 79.2,5.4 C88.4,-0.8 97.2,-0.9 106.6,5.4 C118,13.1 129.8,13 141.3,5.4 C150.6,-0.8 159.3,-0.9 168.7,5.4 C180.1,13.1 191.9,13 203.3,5.4 C212.5,-0.8 221.2,-0.7 230.7,5.3 C235.7,8.4 242.1,9.2 247.9,11 C247.9,13.7 247.9,16.3 247.9,19 C241.7,16.8 235,15.4 229.4,12.2 C220.6,7.2 212.6,6.9 204.2,12.5 C192.2,20.6 179.9,20.8 167.8,12.6 C159,6.7 150.6,6.8 141.8,12.6 C130.1,20.4 118.1,20.8 106.3,12.8 C97,6.6 88.3,6.8 79,13 C68,20.5 56.3,20.7 45,13.2 C35.4,6.8 26.5,7 16.7,13.2 C11.9,16.2 5.6,17.1 0,18.9 C0,16.3 0,13.6 0,10.9 Z" id="Path"></path>
                                </g>
                            </g>
                            <path d="M0,16.5 C18.6024754,9.570006 31.0336633,5.79607282 37.2935636,5.17820046 C37.2935636,5.17820046 37.2935636,5.17820046 37.2935636,5.17820046 L37.2935636,5.17820046 C52.9885786,3.62905183 67.9206024,12.2725099 74.3941118,26.6539922 L75,28 L8.87282343,24.3981937 L0,16.5 Z" id="Rectangle-Copy-11" fill="#02A6E8"></path>
                            <path d="M61,16.5 C79.6024754,9.570006 92.0336633,5.79607282 98.2935636,5.17820046 C98.2935636,5.17820046 98.2935636,5.17820046 98.2935636,5.17820046 L98.2935636,5.17820046 C113.988579,3.62905183 128.920602,12.2725099 135.394112,26.6539922 L136,28 L69.8728234,24.3981937 L61,16.5 Z" id="Rectangle-Copy-125" fill="#02A6E8"></path>
                            <path d="M127,16.5 C145.602475,9.570006 158.033663,5.79607282 164.293564,5.17820046 C164.293564,5.17820046 164.293564,5.17820046 164.293564,5.17820046 L164.293564,5.17820046 C179.988579,3.62905183 194.920602,12.2725099 201.394112,26.6539922 L202,28 L135.872823,24.3981937 L127,16.5 Z" id="Rectangle-Copy-126" fill="#02A6E8"></path>
                            <path d="M190,16.5 C208.602475,9.570006 221.033663,5.79607282 227.293564,5.17820046 C227.293564,5.17820046 227.293564,5.17820046 227.293564,5.17820046 L227.293564,5.17820046 C242.988579,3.62905183 257.920602,12.2725099 264.394112,26.6539922 L265,28 L198.872823,24.3981937 L190,16.5 Z" id="Rectangle-Copy-127" fill="#02A6E8"></path>
                            <path d="M246,16.5 C264.602475,9.570006 277.033663,5.79607282 283.293564,5.17820046 C283.293564,5.17820046 283.293564,5.17820046 283.293564,5.17820046 L283.293564,5.17820046 C298.988579,3.62905183 313.920602,12.2725099 320.394112,26.6539922 L321,28 L254.872823,24.3981937 L246,16.5 Z" id="Rectangle-Copy-128" fill="#02A6E8"></path>
                            <path d="M310,16.5 C328.602475,9.570006 341.033663,5.79607282 347.293564,5.17820046 C347.293564,5.17820046 347.293564,5.17820046 347.293564,5.17820046 L347.293564,5.17820046 C362.988579,3.62905183 377.920602,12.2725099 384.394112,26.6539922 L385,28 L318.872823,24.3981937 L310,16.5 Z" id="Rectangle-Copy-129" fill="#02A6E8"></path>
                            <path d="M371,16.5 C389.602475,9.570006 402.033663,5.79607282 408.293564,5.17820046 C408.293564,5.17820046 408.293564,5.17820046 408.293564,5.17820046 L408.293564,5.17820046 C423.988579,3.62905183 438.920602,12.2725099 445.394112,26.6539922 L446,28 L379.872823,24.3981937 L371,16.5 Z" id="Rectangle-Copy-130" fill="#02A6E8"></path>
                            <path d="M435,16.5 C453.602475,9.570006 466.033663,5.79607282 472.293564,5.17820046 C472.293564,5.17820046 472.293564,5.17820046 472.293564,5.17820046 L472.293564,5.17820046 C487.988579,3.62905183 502.920602,12.2725099 509.394112,26.6539922 L510,28 L443.872823,24.3981937 L435,16.5 Z" id="Rectangle-Copy-131" fill="#02A6E8" transform="translate(472.500000, 16.500000) rotate(-1.000000) translate(-472.500000, -16.500000) "></path>
                        </g>
                    </g>
                </g>
            </g>
        </g>
    </g>
</svg>